<?xml version="1.0" encoding="utf-8"?>
<!-- Generator: Adobe Illustrator 19.1.0, SVG Export Plug-In . SVG Version: 6.00 Build 0)  -->
<svg version="1.1" id="Layer_1" xmlns:sketch="http://www.bohemiancoding.com/sketch/ns"
	 xmlns="http://www.w3.org/2000/svg" xmlns:xlink="http://www.w3.org/1999/xlink" x="0px" y="0px" viewBox="-23 -6.8 52 91"
	 style="enable-background:new -23 -6.8 52 91;" xml:space="preserve">
<style type="text/css">
	.st0{fill:#0099CC;}
</style>
<title>touch_gesture_triple_tap</title>
<description>Created with Sketch (http://www.bohemiancoding.com/sketch)</description>
<g sketch:type="MSPage">
	<path sketch:type="MSShapeGroup" class="st0" d="M-1,20.3c-5.3-2-9-7.1-9-13.1c0-7.7,6.3-14,14-14s14,6.3,14,14
		c0,6-3.7,11.1-9,13.1v-1.1c4.7-2,8-6.6,8-12c0-7.2-5.8-13-13-13S-9,0.1-9,7.2c0,5.4,3.3,10,8,12V20.3z M-1,17.1
		c-3.6-1.8-6-5.5-6-9.8c0-6.1,4.9-11,11-11s11,4.9,11,11c0,4.3-2.4,8-6,9.8v-1.1c3-1.7,5-5,5-8.7c0-5.5-4.5-10-10-10S-6,1.7-6,7.2
		c0,3.7,2,6.9,5,8.7V17.1z M-1,13.5C-2.8,12-4,9.8-4,7.2c0-4.4,3.6-8,8-8s8,3.6,8,8c0,2.5-1.2,4.8-3,6.2v-1.3c1.2-1.3,2-3,2-4.9
		c0-3.9-3.1-7-7-7s-7,3.1-7,7c0,1.9,0.8,3.6,2,4.9V13.5z M-12.9,35.7c0.9-0.9,2.3-0.9,3.3-0.9s1.7,1.6,1.7,1.6s1.3-5.3,4.4-5.9
		s3.6,1.3,3.6,1.3V10.7c0,0,0-4.3,3.9-4.3S8,10.7,8,10.7v29.6c0,4.4,1.6,11.1,1.6,11.1s10.3-18.8,19-12.8c1.4,1.1-3.3,3.9-5.9,8.2
		c-3.1,5.2-5.2,12.7-5.5,13.5C16.8,61.2,9.7,75,9,75.8c-0.6,0.8-1.9,1.4-2.3,1.9c-0.4,0.5-0.5,3.7-0.5,3.7s-2.1,2.8-10.5,2.8
		s-10.5-2.8-10.5-2.8s1.4-8.7,1.4-9.5c0-0.8-9.5-16.4-9.5-18.5s2.5-9.7,4-12.3c1.5-2.6,4.1-1.8,4.1-1.8S-14.2,36.9-12.9,35.7z"/>
</g>
</svg>
